<?xml version="1.0" encoding="utf-8"?>
<!-- Generator: Adobe Illustrator 27.0.1, SVG Export Plug-In . SVG Version: 6.00 Build 0)  -->
<svg version="1.1" id="Layer_1" xmlns="http://www.w3.org/2000/svg" xmlns:xlink="http://www.w3.org/1999/xlink" x="0px" y="0px"
	 viewBox="0 0 32 32" style="enable-background:new 0 0 32 32;" xml:space="preserve">
<style type="text/css">
	.st0{fill:#FFFFFF;stroke:#000000;stroke-width:0.5;stroke-linecap:round;stroke-linejoin:round;stroke-miterlimit:10;}
	.st1{fill:none;stroke:#000000;stroke-width:0.75;stroke-linecap:round;stroke-linejoin:round;stroke-miterlimit:10;}
</style>
<path class="st0" d="M14.3,10.4"/>
<path class="st1" d="M14.3,10.4l3.2-3.2c2-2,5.3-2,7.3,0l0,0c2,2,2,5.3,0,7.3l-3.2,3.2c-2,2-5.3,2-7.3,0l0,0
	c-0.2-0.2-0.4-0.4-0.6-0.7"/>
<path class="st1" d="M17.7,21.6l-3.2,3.2c-2,2-5.3,2-7.3,0l0,0c-2-2-2-5.3,0-7.3l3.2-3.2c2-2,5.3-2,7.3,0l0,0
	c0.2,0.2,0.4,0.4,0.6,0.7"/>
</svg>
