<?xml version="1.0" encoding="utf-8"?>
<!-- Generator: Adobe Illustrator 27.3.1, SVG Export Plug-In . SVG Version: 6.00 Build 0)  -->
<svg version="1.1"
	 id="Layer_1" image-rendering="optimizeQuality" text-rendering="geometricPrecision" shape-rendering="geometricPrecision"
	 xmlns="http://www.w3.org/2000/svg" xmlns:xlink="http://www.w3.org/1999/xlink" x="0px" y="0px" viewBox="0 0 24 24"
	 style="enable-background:new 0 0 24 24;" xml:space="preserve">
<style type="text/css">
	.st0{fill-rule:evenodd;clip-rule:evenodd;}
</style>
<path class="st0" d="M12,0c6.6,0,12,5.4,12,12c0,6.6-5.4,12-12,12C5.4,24,0,18.6,0,12C0,5.4,5.4,0,12,0z M10.5,9.6h2.5v1.3h0
	c0.3-0.6,1.2-1.3,2.4-1.3c2.6,0,3.1,1.6,3.1,3.7v4.3h-2.6v-3.8c0-0.9,0-2.1-1.3-2.1c-1.3,0-1.5,1-1.5,2v3.9h-2.6L10.5,9.6L10.5,9.6z
	 M8.7,7.4c0,0.7-0.6,1.3-1.3,1.3C6.6,8.7,6,8.1,6,7.4c0-0.7,0.6-1.3,1.3-1.3C8.1,6.1,8.7,6.7,8.7,7.4z M6,9.6h2.7v8H6V9.6z"/>
</svg>
